<?xml version="1.0" encoding="UTF-8" standalone="no"?>
<!DOCTYPE svg PUBLIC "-//W3C//DTD SVG 1.1//EN"
 "http://www.w3.org/Graphics/SVG/1.1/DTD/svg11.dtd">
<!-- Generated by graphviz version 2.43.0 (0)
 -->
<!-- Title: SSVEP_Node3_Topology Pages: 1 -->
<svg width="1985pt" height="458pt"
 viewBox="0.00 0.00 1985.00 458.00" xmlns="http://www.w3.org/2000/svg" xmlns:xlink="http://www.w3.org/1999/xlink">
<g id="graph0" class="graph" transform="scale(1 1) rotate(0) translate(4 454)">
<title>SSVEP_Node3_Topology</title>
<polygon fill="white" stroke="transparent" points="-4,4 -4,-454 1981,-454 1981,4 -4,4"/>
<g id="clust1" class="cluster">
<title>cluster_ubuntu</title>
<polygon fill="none" stroke="#aaaaaa" points="611,-8 611,-287 1383,-287 1383,-8 611,-8"/>
<text text-anchor="middle" x="997" y="-273.4" font-family="Noto Sans CJK SC" font-size="12.00">Ubuntu ROS2 主机</text>
</g>
<g id="clust2" class="cluster">
<title>cluster_unity</title>
<polygon fill="none" stroke="#aaaaaa" points="8,-74 8,-149 406,-149 406,-74 8,-74"/>
<text text-anchor="middle" x="207" y="-135.4" font-family="Noto Sans CJK SC" font-size="12.00">Unity 主机</text>
</g>
<g id="clust3" class="cluster">
<title>cluster_windows</title>
<polygon fill="none" stroke="#aaaaaa" points="1132,-295 1132,-442 1346,-442 1346,-295 1132,-295"/>
<text text-anchor="middle" x="1239" y="-428.4" font-family="Noto Sans CJK SC" font-size="12.00">Windows 采集/转发机</text>
</g>
<!-- node3 -->
<g id="node1" class="node">
<title>node3</title>
<path fill="#f7f7f7" stroke="#333333" d="M845,-165C845,-165 631,-165 631,-165 625,-165 619,-159 619,-153 619,-153 619,-139 619,-139 619,-133 625,-127 631,-127 631,-127 845,-127 845,-127 851,-127 857,-133 857,-139 857,-139 857,-153 857,-153 857,-159 851,-165 845,-165"/>
<text text-anchor="middle" x="738" y="-149.8" font-family="Noto Sans CJK SC" font-size="14.00">ssvep_communication_node3</text>
<text text-anchor="middle" x="738" y="-134.8" font-family="Noto Sans CJK SC" font-size="14.00">SSVEP_Communication_Node3.py</text>
</g>
<!-- reasoner -->
<g id="node2" class="node">
<title>reasoner</title>
<path fill="#f7f7f7" stroke="#333333" d="M1363,-216C1363,-216 1115,-216 1115,-216 1109,-216 1103,-210 1103,-204 1103,-204 1103,-190 1103,-190 1103,-184 1109,-178 1115,-178 1115,-178 1363,-178 1363,-178 1369,-178 1375,-184 1375,-190 1375,-190 1375,-204 1375,-204 1375,-210 1369,-216 1363,-216"/>
<text text-anchor="middle" x="1239" y="-200.8" font-family="Noto Sans CJK SC" font-size="14.00">reasoner_publish_test</text>
<text text-anchor="middle" x="1239" y="-185.8" font-family="Noto Sans CJK SC" font-size="14.00">/reasoner/images + /reasoner/feedback</text>
</g>
<!-- node3&#45;&gt;reasoner -->
<g id="edge1" class="edge">
<title>node3&#45;&gt;reasoner</title>
<path fill="none" stroke="#444444" d="M857,-151.1C924.02,-154.76 1009.4,-160.73 1085,-170 1099.25,-171.75 1114.18,-173.93 1128.91,-176.3"/>
<polygon fill="#444444" stroke="#444444" points="1128.62,-179.8 1139.05,-177.97 1129.75,-172.89 1128.62,-179.8"/>
<text text-anchor="middle" x="980" y="-195" font-family="Noto Sans CJK SC" font-size="10.00">ROS2 /reasoner/feedback</text>
<text text-anchor="middle" x="980" y="-184" font-family="Noto Sans CJK SC" font-size="10.00">sensor_msgs/Image</text>
<text text-anchor="middle" x="980" y="-173" font-family="Noto Sans CJK SC" font-size="10.00">cmd=ssvep_ready/selection/rollback/confirm</text>
</g>
<!-- endpoint -->
<g id="node3" class="node">
<title>endpoint</title>
<path fill="#f7f7f7" stroke="#333333" d="M1313.5,-76C1313.5,-76 1164.5,-76 1164.5,-76 1158.5,-76 1152.5,-70 1152.5,-64 1152.5,-64 1152.5,-50 1152.5,-50 1152.5,-44 1158.5,-38 1164.5,-38 1164.5,-38 1313.5,-38 1313.5,-38 1319.5,-38 1325.5,-44 1325.5,-50 1325.5,-50 1325.5,-64 1325.5,-64 1325.5,-70 1319.5,-76 1313.5,-76"/>
<text text-anchor="middle" x="1239" y="-60.8" font-family="Noto Sans CJK SC" font-size="14.00">ros_tcp_endpoint</text>
<text text-anchor="middle" x="1239" y="-45.8" font-family="Noto Sans CJK SC" font-size="14.00">TCP Server 0.0.0.0:10000</text>
</g>
<!-- node3&#45;&gt;endpoint -->
<g id="edge3" class="edge">
<title>node3&#45;&gt;endpoint</title>
<path fill="none" stroke="#444444" d="M754.56,-126.88C777.59,-100.28 823.61,-53.31 875,-35 969.91,-1.18 1087.55,-18.08 1162.7,-35.6"/>
<polygon fill="#444444" stroke="#444444" points="1162.02,-39.04 1172.56,-37.96 1163.65,-32.23 1162.02,-39.04"/>
<text text-anchor="middle" x="980" y="-49" font-family="Noto Sans CJK SC" font-size="10.00">ROS2 /image_seg</text>
<text text-anchor="middle" x="980" y="-38" font-family="Noto Sans CJK SC" font-size="10.00">sensor_msgs/Image(bgr8)</text>
</g>
<!-- node3&#45;&gt;endpoint -->
<g id="edge4" class="edge">
<title>node3&#45;&gt;endpoint</title>
<path fill="none" stroke="#444444" d="M769.53,-126.89C796.25,-111.24 836.68,-90.09 875,-80 923.51,-67.22 1051.62,-61.45 1141.85,-58.9"/>
<polygon fill="#444444" stroke="#444444" points="1142.2,-62.39 1152.1,-58.62 1142.01,-55.4 1142.2,-62.39"/>
<text text-anchor="middle" x="980" y="-94" font-family="Noto Sans CJK SC" font-size="10.00">ROS2 /ssvep_decode_cmd</text>
<text text-anchor="middle" x="980" y="-83" font-family="Noto Sans CJK SC" font-size="10.00">cmd=prepare/stim/stop/done</text>
</g>
<!-- node3&#45;&gt;endpoint -->
<g id="edge5" class="edge">
<title>node3&#45;&gt;endpoint</title>
<path fill="none" stroke="#444444" d="M857.29,-129.33C863.28,-128.53 869.21,-127.75 875,-127 968.22,-114.94 992.92,-120.88 1085,-102 1113.87,-96.08 1145.18,-87.3 1171.91,-79.07"/>
<polygon fill="#444444" stroke="#444444" points="1173.03,-82.39 1181.54,-76.07 1170.95,-75.7 1173.03,-82.39"/>
<text text-anchor="middle" x="980" y="-141" font-family="Noto Sans CJK SC" font-size="10.00">ROS2 /ssvep_train_cmd</text>
<text text-anchor="middle" x="980" y="-130" font-family="Noto Sans CJK SC" font-size="10.00">cmd=cue/stim/rest/stop/done</text>
</g>
<!-- udp2com -->
<g id="node5" class="node">
<title>udp2com</title>
<path fill="#f7f7f7" stroke="#333333" d="M1326,-356.5C1326,-356.5 1152,-356.5 1152,-356.5 1146,-356.5 1140,-350.5 1140,-344.5 1140,-344.5 1140,-315.5 1140,-315.5 1140,-309.5 1146,-303.5 1152,-303.5 1152,-303.5 1326,-303.5 1326,-303.5 1332,-303.5 1338,-309.5 1338,-315.5 1338,-315.5 1338,-344.5 1338,-344.5 1338,-350.5 1332,-356.5 1326,-356.5"/>
<text text-anchor="middle" x="1239" y="-341.3" font-family="Noto Sans CJK SC" font-size="14.00">udp2com 转发器</text>
<text text-anchor="middle" x="1239" y="-326.3" font-family="Noto Sans CJK SC" font-size="14.00">windows_com_publisher.py</text>
<text text-anchor="middle" x="1239" y="-311.3" font-family="Noto Sans CJK SC" font-size="14.00">UDP 8888 &#45;&gt; COM3</text>
</g>
<!-- node3&#45;&gt;udp2com -->
<g id="edge9" class="edge">
<title>node3&#45;&gt;udp2com</title>
<path fill="none" stroke="#444444" d="M757.35,-165.08C781.84,-189.37 827.66,-230.84 875,-253 955.66,-290.76 1055.07,-310.19 1129.45,-320.08"/>
<polygon fill="#444444" stroke="#444444" points="1129.41,-323.6 1139.77,-321.41 1130.3,-316.66 1129.41,-323.6"/>
<text text-anchor="middle" x="980" y="-337" font-family="Noto Sans CJK SC" font-size="10.00">UDP uint8 触发</text>
<text text-anchor="middle" x="980" y="-326" font-family="Noto Sans CJK SC" font-size="10.00">5006 &#45;&gt; 8888</text>
<text text-anchor="middle" x="980" y="-315" font-family="Noto Sans CJK SC" font-size="10.00">(trigger:1/2...)</text>
</g>
<!-- reasoner&#45;&gt;node3 -->
<g id="edge2" class="edge">
<title>reasoner&#45;&gt;node3</title>
<path fill="none" stroke="#444444" d="M1102.72,-212.88C1033.9,-217.52 949.31,-217.94 875,-203 842.81,-196.53 808.74,-182.23 782.75,-169.58"/>
<polygon fill="#444444" stroke="#444444" points="784.08,-166.33 773.56,-165.01 780.96,-172.6 784.08,-166.33"/>
<text text-anchor="middle" x="980" y="-241" font-family="Noto Sans CJK SC" font-size="10.00">ROS2 /reasoner/images</text>
<text text-anchor="middle" x="980" y="-230" font-family="Noto Sans CJK SC" font-size="10.00">sensor_msgs/Image</text>
<text text-anchor="middle" x="980" y="-219" font-family="Noto Sans CJK SC" font-size="10.00">图像组 + cmd=reasoner_ready/done</text>
</g>
<!-- stim -->
<g id="node4" class="node">
<title>stim</title>
<path fill="#f7f7f7" stroke="#333333" d="M386,-120C386,-120 28,-120 28,-120 22,-120 16,-114 16,-108 16,-108 16,-94 16,-94 16,-88 22,-82 28,-82 28,-82 386,-82 386,-82 392,-82 398,-88 398,-94 398,-94 398,-108 398,-108 398,-114 392,-120 386,-120"/>
<text text-anchor="middle" x="207" y="-104.8" font-family="Noto Sans CJK SC" font-size="14.00">SSVEP_Stimulus2.cs</text>
<text text-anchor="middle" x="207" y="-89.8" font-family="Noto Sans CJK SC" font-size="14.00">订阅 /image_seg /ssvep_decode_cmd /ssvep_train_cmd</text>
</g>
<!-- endpoint&#45;&gt;stim -->
<g id="edge6" class="edge">
<title>endpoint&#45;&gt;stim</title>
<path fill="none" stroke="#444444" d="M1173.1,-35.05C1146.18,-27.03 1114.42,-18.96 1085,-15 795.51,24.01 450,-43.01 293.06,-79.6"/>
<polygon fill="#444444" stroke="#444444" points="1172.2,-38.43 1182.79,-37.99 1174.24,-31.74 1172.2,-38.43"/>
<polygon fill="#444444" stroke="#444444" points="291.94,-76.27 283,-81.96 293.54,-83.08 291.94,-76.27"/>
<text text-anchor="middle" x="738" y="-47" font-family="Noto Sans CJK SC" font-size="10.00">TCP 10000</text>
<text text-anchor="middle" x="738" y="-36" font-family="Noto Sans CJK SC" font-size="10.00">ROS&#45;TCP&#45;Connector 协议</text>
<text text-anchor="middle" x="738" y="-25" font-family="Noto Sans CJK SC" font-size="10.00">&lt;len&gt;&lt;dest&gt;&lt;len&gt;&lt;serialized_ros_msg&gt;</text>
</g>
<!-- stim&#45;&gt;node3 -->
<g id="edge7" class="edge">
<title>stim&#45;&gt;node3</title>
<path fill="none" stroke="#444444" d="M398.35,-89.65C463.01,-88.93 535.47,-91.58 601,-102 627.82,-106.27 656.56,-114.92 680.68,-123.44"/>
<polygon fill="#444444" stroke="#444444" points="679.77,-126.83 690.36,-126.94 682.15,-120.25 679.77,-126.83"/>
<text text-anchor="middle" x="508.5" y="-116" font-family="Noto Sans CJK SC" font-size="10.00">UDP 文本 &#45;&gt; 10000</text>
<text text-anchor="middle" x="508.5" y="-105" font-family="Noto Sans CJK SC" font-size="10.00">trial_started=&lt;trial_id&gt;</text>
</g>
<!-- stim&#45;&gt;node3 -->
<g id="edge8" class="edge">
<title>stim&#45;&gt;node3</title>
<path fill="none" stroke="#444444" d="M374.26,-120.01C388.37,-121.43 402.43,-122.79 416,-124 479.38,-129.67 549.91,-134.65 608.68,-138.43"/>
<polygon fill="#444444" stroke="#444444" points="608.55,-141.93 618.76,-139.08 609,-134.95 608.55,-141.93"/>
<text text-anchor="middle" x="508.5" y="-152" font-family="Noto Sans CJK SC" font-size="10.00">UDP 文本 &#45;&gt; 10001</text>
<text text-anchor="middle" x="508.5" y="-141" font-family="Noto Sans CJK SC" font-size="10.00">trial_start=&lt;trial_id&gt;;target=&lt;target_id&gt;</text>
</g>
<!-- sync -->
<g id="node7" class="node">
<title>sync</title>
<path fill="#f7f7f7" stroke="#333333" d="M1619,-350C1619,-350 1541,-350 1541,-350 1535,-350 1529,-344 1529,-338 1529,-338 1529,-326 1529,-326 1529,-320 1535,-314 1541,-314 1541,-314 1619,-314 1619,-314 1625,-314 1631,-320 1631,-326 1631,-326 1631,-338 1631,-338 1631,-344 1625,-350 1619,-350"/>
<text text-anchor="middle" x="1580" y="-328.3" font-family="Noto Sans CJK SC" font-size="14.00">多参数同步器</text>
</g>
<!-- udp2com&#45;&gt;sync -->
<g id="edge10" class="edge">
<title>udp2com&#45;&gt;sync</title>
<path fill="none" stroke="#444444" d="M1338.05,-330.58C1396.41,-330.92 1468.6,-331.35 1518.67,-331.64"/>
<polygon fill="#444444" stroke="#444444" points="1518.67,-335.14 1528.69,-331.7 1518.71,-328.14 1518.67,-335.14"/>
<text text-anchor="middle" x="1452" y="-346" font-family="Noto Sans CJK SC" font-size="10.00">USB 串口</text>
<text text-anchor="middle" x="1452" y="-335" font-family="Noto Sans CJK SC" font-size="10.00">DCP: 01 E1 01 00 &lt;trigger&gt;</text>
</g>
<!-- nn -->
<g id="node6" class="node">
<title>nn</title>
<path fill="#f7f7f7" stroke="#333333" d="M1319,-413C1319,-413 1159,-413 1159,-413 1153,-413 1147,-407 1147,-401 1147,-401 1147,-387 1147,-387 1147,-381 1153,-375 1159,-375 1159,-375 1319,-375 1319,-375 1325,-375 1331,-381 1331,-387 1331,-387 1331,-401 1331,-401 1331,-407 1325,-413 1319,-413"/>
<text text-anchor="middle" x="1239" y="-397.8" font-family="Noto Sans CJK SC" font-size="14.00">NeuroNexus TCP 转发服务</text>
<text text-anchor="middle" x="1239" y="-382.8" font-family="Noto Sans CJK SC" font-size="14.00">TCP 8712</text>
</g>
<!-- nn&#45;&gt;node3 -->
<g id="edge11" class="edge">
<title>nn&#45;&gt;node3</title>
<path fill="none" stroke="#444444" d="M1146.87,-402.84C1069.01,-405.94 956.92,-399.44 875,-349 808.17,-307.85 766.91,-220.15 749.16,-174.68"/>
<polygon fill="#444444" stroke="#444444" points="752.35,-173.24 745.53,-165.13 745.81,-175.72 752.35,-173.24"/>
<text text-anchor="middle" x="980" y="-427" font-family="Noto Sans CJK SC" font-size="10.00">TCP 8712</text>
<text text-anchor="middle" x="980" y="-416" font-family="Noto Sans CJK SC" font-size="10.00">小端 float32 帧(9)</text>
<text text-anchor="middle" x="980" y="-405" font-family="Noto Sans CJK SC" font-size="10.00">8 EEG + 1 Trigger</text>
</g>
<!-- cap -->
<g id="node8" class="node">
<title>cap</title>
<path fill="#f7f7f7" stroke="#333333" d="M1734,-357C1734,-357 1699,-357 1699,-357 1693,-357 1687,-351 1687,-345 1687,-345 1687,-333 1687,-333 1687,-327 1693,-321 1699,-321 1699,-321 1734,-321 1734,-321 1740,-321 1746,-327 1746,-333 1746,-333 1746,-345 1746,-345 1746,-351 1740,-357 1734,-357"/>
<text text-anchor="middle" x="1716.5" y="-335.3" font-family="Noto Sans CJK SC" font-size="14.00">脑电帽</text>
</g>
<!-- sync&#45;&gt;cap -->
<g id="edge14" class="edge">
<title>sync&#45;&gt;cap</title>
<path fill="none" stroke="#444444" d="M1631.08,-334.61C1646.08,-335.39 1662.3,-336.23 1676.48,-336.97"/>
<polygon fill="#444444" stroke="#444444" points="1676.69,-340.49 1686.86,-337.51 1677.06,-333.49 1676.69,-340.49"/>
<text text-anchor="middle" x="1659" y="-339" font-family="Noto Sans CJK SC" font-size="10.00">触点</text>
</g>
<!-- amp -->
<g id="node9" class="node">
<title>amp</title>
<path fill="#f7f7f7" stroke="#333333" d="M1849,-363C1849,-363 1814,-363 1814,-363 1808,-363 1802,-357 1802,-351 1802,-351 1802,-339 1802,-339 1802,-333 1808,-327 1814,-327 1814,-327 1849,-327 1849,-327 1855,-327 1861,-333 1861,-339 1861,-339 1861,-351 1861,-351 1861,-357 1855,-363 1849,-363"/>
<text text-anchor="middle" x="1831.5" y="-341.3" font-family="Noto Sans CJK SC" font-size="14.00">放大器</text>
</g>
<!-- cap&#45;&gt;amp -->
<g id="edge15" class="edge">
<title>cap&#45;&gt;amp</title>
<path fill="none" stroke="#444444" d="M1746.01,-340.51C1759.93,-341.25 1776.88,-342.15 1791.94,-342.95"/>
<polygon fill="#444444" stroke="#444444" points="1791.82,-346.45 1801.99,-343.49 1792.19,-339.46 1791.82,-346.45"/>
<text text-anchor="middle" x="1774" y="-345" font-family="Noto Sans CJK SC" font-size="10.00">触点</text>
</g>
<!-- router -->
<g id="node10" class="node">
<title>router</title>
<path fill="#f7f7f7" stroke="#333333" d="M1965,-387C1965,-387 1930,-387 1930,-387 1924,-387 1918,-381 1918,-375 1918,-375 1918,-363 1918,-363 1918,-357 1924,-351 1930,-351 1930,-351 1965,-351 1965,-351 1971,-351 1977,-357 1977,-363 1977,-363 1977,-375 1977,-375 1977,-381 1971,-387 1965,-387"/>
<text text-anchor="middle" x="1947.5" y="-365.3" font-family="Noto Sans CJK SC" font-size="14.00">路由器</text>
</g>
<!-- amp&#45;&gt;router -->
<g id="edge12" class="edge">
<title>amp&#45;&gt;router</title>
<path fill="none" stroke="#444444" d="M1861.27,-351.06C1875.31,-354.01 1892.41,-357.61 1907.59,-360.81"/>
<polygon fill="#444444" stroke="#444444" points="1907.24,-364.31 1917.74,-362.95 1908.68,-357.46 1907.24,-364.31"/>
<text text-anchor="middle" x="1889.5" y="-362" font-family="Noto Sans CJK SC" font-size="10.00">WiFi</text>
</g>
<!-- router&#45;&gt;nn -->
<g id="edge13" class="edge">
<title>router&#45;&gt;nn</title>
<path fill="none" stroke="#444444" d="M1917.8,-378.49C1894.96,-385.19 1862.03,-393 1832.5,-393 1579,-393 1579,-393 1579,-393 1499.09,-393 1408.58,-393.28 1341.2,-393.55"/>
<polygon fill="#444444" stroke="#444444" points="1340.99,-390.05 1331.01,-393.59 1341.02,-397.05 1340.99,-390.05"/>
<text text-anchor="middle" x="1716.5" y="-396" font-family="Noto Sans CJK SC" font-size="10.00">WiFi</text>
</g>
</g>
</svg>
